<?xml version="1.0" encoding="UTF-8" standalone="no"?>
<!-- Created with Inkscape (http://www.inkscape.org/) -->

<svg
   version="1.1"
   id="svg2"
   xml:space="preserve"
   width="493.51999"
   height="542.21332"
   viewBox="0 0 493.51999 542.21332"
   sodipodi:docname="adminview.ink.svg"
   inkscape:version="1.1.2 (0a00cf5339, 2022-02-04, custom)"
   inkscape:export-filename="/run/media/etan-ht2/polytech/S6/CEnt/adminview.ink.png"
   inkscape:export-xdpi="140"
   inkscape:export-ydpi="140"
   xmlns:inkscape="http://www.inkscape.org/namespaces/inkscape"
   xmlns:sodipodi="http://sodipodi.sourceforge.net/DTD/sodipodi-0.dtd"
   xmlns="http://www.w3.org/2000/svg"
   xmlns:svg="http://www.w3.org/2000/svg"><defs
     id="defs6"><rect
       x="55.901817"
       y="460.4263"
       width="433.24612"
       height="160.00835"
       id="rect5721" /></defs><sodipodi:namedview
     id="namedview4"
     pagecolor="#505050"
     bordercolor="#ffffff"
     borderopacity="1"
     inkscape:pageshadow="0"
     inkscape:pageopacity="0"
     inkscape:pagecheckerboard="1"
     showgrid="false"
     inkscape:zoom="1.9560695"
     inkscape:cx="258.4264"
     inkscape:cy="309.0381"
     inkscape:window-width="2560"
     inkscape:window-height="1386"
     inkscape:window-x="0"
     inkscape:window-y="27"
     inkscape:window-maximized="1"
     inkscape:current-layer="g10"
     inkscape:snap-page="true"
     inkscape:snap-smooth-nodes="true"
     width="493.51999px"
     height="444.21332px"
     inkscape:snap-object-midpoints="false"
     inkscape:snap-bbox="false"
     inkscape:snap-bbox-midpoints="false" /><g
     id="g8"
     inkscape:groupmode="layer"
     inkscape:label="ink_ext_XXXXXX"
     transform="matrix(1.3333333,0,0,-1.3333333,0,442.21333)"><g
       id="g10"
       transform="scale(0.1)"><path
         d="m 1842.4663,849.93745 c 343.08,0 621.2,-193.32 621.2,-431.781 0,-199.078 -193.82,-366.648331 -457.43,-416.6014442 v -9.0585901 h -303.03 v 4.76172 c -276.02,43.9374833 -481.94,215.6993143 -481.94,420.8983143 0,238.461 278.12,431.781 621.2,431.781"
         style="fill:#ffffff;fill-opacity:1;fill-rule:evenodd;stroke:#000000;stroke-width:13.7475;stroke-linecap:square;stroke-linejoin:miter;stroke-miterlimit:4;stroke-dasharray:none;stroke-opacity:1"
         id="path12" /><path
         d="m 1722.0363,-7.5035843 -235.8,417.1600343 -417.24,695.40985 L 124.38333,785.07845 C 36.832226,675.57845 10.176016,60.168319 7.4963258,-7.5035843 Z m 1971.86,0 c -2.67,67.6719033 -29.33,683.0820343 -116.88,792.5820343 l -944.62,319.98785 -412.09,-699.12885 -240.95,-413.4410343 h 1714.54 v 0"
         style="fill:#2f2e2c;fill-opacity:1;fill-rule:evenodd;stroke:#000000;stroke-width:13.7475;stroke-linecap:square;stroke-linejoin:miter;stroke-miterlimit:4;stroke-dasharray:none;stroke-opacity:1"
         id="path14" /><path
         d="m 2611.4963,-7.5035843 248.1,385.9300343 -150.05,218.461 270.26,71.308 -50.91,336.43085 -296.49,100.44 h -0.01 l -13.6,-22.65 -608.02,-1019.318281 -34.9,-59.1602024 h -0.4 l -6.81,-11.4414009 h 642.83"
         style="fill:#525354;fill-opacity:1;fill-rule:evenodd;stroke:#000000;stroke-width:13.7475;stroke-linecap:butt;stroke-linejoin:miter;stroke-miterlimit:4;stroke-dasharray:none;stroke-opacity:1"
         id="path16" /><path
         d="M 1089.8963,-7.5035843 841.79333,378.42645 l 150.058,218.461 -270.257,71.308 50.914,336.43085 296.48797,100.44 v 0 l 13.6,-22.65 608.03,-1019.318281 34.89,-59.1602024 h 0.4 l 6.82,-11.4414009 h -642.84"
         style="fill:#525354;fill-opacity:1;fill-rule:evenodd;stroke:#000000;stroke-width:13.7475;stroke-linecap:butt;stroke-linejoin:miter;stroke-miterlimit:4;stroke-dasharray:none;stroke-opacity:1"
         id="path18" /><path
         d="m 1850.6963,845.29745 -234.27,-246.922 69.75,-89.199 -69.79,-330.559 115.99,-186.1210343 h 236.68 l 112.6,179.4490343 -44.6,336.961 47.92,89.469 -234.28,246.922"
         style="fill:#ff5552;fill-opacity:1;fill-rule:evenodd;stroke:#000000;stroke-width:13.7475;stroke-linecap:square;stroke-linejoin:miter;stroke-miterlimit:4;stroke-dasharray:none;stroke-opacity:1"
         id="path20" /><path
         d="m 1812.9063,845.34845 -196.48,-246.973 69.75,-89.199 -0.06,-0.27 h 350.94 l 47.92,89.469 -192.11,246.973 h -79.96"
         style="fill:#eb403c;fill-opacity:1;fill-rule:evenodd;stroke:#000000;stroke-width:13.7475;stroke-linecap:square;stroke-linejoin:miter;stroke-miterlimit:4;stroke-dasharray:none;stroke-opacity:1"
         id="path22" /><path
         d="m 1068.9963,1105.0663 237.13,279.04 544.57,-538.80885 -416.51,-465.742 -365.19,725.51085"
         style="fill:#ffffff;fill-opacity:1;fill-rule:evenodd;stroke:#000000;stroke-width:13.7475;stroke-linecap:square;stroke-linejoin:miter;stroke-miterlimit:4;stroke-dasharray:none;stroke-opacity:1"
         id="path24" /><path
         d="m 2632.4063,1105.0663 -237.14,279.04 -544.57,-538.80885 416.51,-465.742 365.2,725.51085"
         style="fill:#ffffff;fill-opacity:1;fill-rule:evenodd;stroke:#000000;stroke-width:13.7475;stroke-linecap:square;stroke-linejoin:miter;stroke-miterlimit:4;stroke-dasharray:none;stroke-opacity:1"
         id="path26" /><path
         d="m 1850.6963,2627.2963 c 90.29,0 172.04,-36.61 231.22,-95.78 59.17,-59.17 95.77,-140.92 95.77,-231.21 0,-90.29 -36.6,-172.05 -95.77,-231.22 -59.18,-59.17 -140.93,-95.77 -231.22,-95.77 -90.29,0 -172.04,36.6 -231.21,95.77 -59.18,59.17 -95.78,140.93 -95.78,231.22 0,90.29 36.6,172.04 95.78,231.21 59.17,59.17 140.92,95.78 231.21,95.78 z m 674.82,64.39 137.02,137.02 c 23.85,23.84 23.85,62.51 0,86.34 l -197.09,197.1 c -23.83,23.85 -62.5,23.85 -86.34,0 l -137.05,-137.06 c -29.89,17.4 -60.9,32.82 -92.89,46.09 -31.75,13.16 -64.48,24.28 -98.04,33.2 v 193.63 c 0,33.72 -27.34,61.06 -61.06,61.06 h -278.74 c -33.72,0 -61.06,-27.34 -61.06,-61.06 v -193.64 c -33.56,-8.91 -66.29,-20.03 -98.04,-33.19 -31.99,-13.26 -63.01,-28.68 -92.88,-46.08 l -137.06,137.05 c -23.84,23.85 -62.5,23.85 -86.34,0 l -197.09,-197.1 c -23.85,-23.83 -23.85,-62.5 0,-86.34 l 137.04,-137.04 c -17.4,-29.87 -32.81,-60.9 -46.08,-92.88 -13.15,-31.75 -24.28,-64.49 -33.19,-98.06 H 903.00033 c -33.727,0 -61.066,-27.34 -61.066,-61.05 v -278.74 c 0,-33.72 27.339,-61.06 61.066,-61.06 h 193.59597 c 8.92,-33.58 20.05,-66.33 33.21,-98.1 13.26,-31.97 28.67,-62.99 46.07,-92.86 l -137.02,-137.02 c -23.85,-23.84 -23.85,-62.5 0,-86.34 l 197.09,-197.1 c 23.84,-23.84 62.5,-23.84 86.34,0 l 137.06,137.06 c 29.88,-17.39 60.9,-32.82 92.89,-46.08 31.74,-13.16 64.47,-24.28 98.03,-33.2 v -193.64 c 0,-33.72 27.34,-61.05 61.06,-61.05 h 278.74 c 33.72,0 61.06,27.33 61.06,61.05 v 193.6 c 33.58,8.93 66.34,20.05 98.09,33.22 31.99,13.26 62.99,28.67 92.86,46.06 l 137.03,-137.02 c 23.84,-23.84 62.51,-23.84 86.34,0 l 197.09,197.1 c 23.85,23.84 23.85,62.5 0,86.34 l -137.05,137.06 c 17.4,29.87 32.82,60.9 46.08,92.88 13.16,31.75 24.28,64.48 33.2,98.04 h 193.63 c 33.72,0 61.07,27.34 61.07,61.06 v 278.74 c 0,33.71 -27.35,61.05 -61.07,61.05 h -193.6 c -8.92,33.58 -20.05,66.34 -33.21,98.1 -13.26,31.98 -28.67,62.99 -46.07,92.86 v 0"
         style="fill:#2f2e2c;fill-opacity:1;fill-rule:evenodd;stroke:#000000;stroke-width:13.7475;stroke-linecap:square;stroke-linejoin:miter;stroke-miterlimit:4;stroke-dasharray:none;stroke-opacity:1"
         id="path28" /><text
         xml:space="preserve"
         transform="matrix(7.5000002,0,0,-7.5000002,-191.00066,3367.6428)"
         id="text5719"
         style="font-style:normal;font-variant:normal;font-weight:600;font-stretch:normal;font-size:74.6667px;line-height:1.25;font-family:'URW Gothic';-inkscape-font-specification:'URW Gothic Semi-Bold';text-align:center;white-space:pre;shape-inside:url(#rect5721);fill:#ffffff;fill-opacity:1;stroke:#000000;stroke-width:1.9;stroke-linecap:butt;stroke-miterlimit:4;stroke-dasharray:none;stroke-dashoffset:0;stroke-opacity:1"
         x="104.83994"
         y="0"><tspan
           x="66.669295"
           y="524.93781"
           id="tspan76842">AdminView</tspan></text></g></g></svg>
